%
M48
M72
T01C0.0240
T02C0.0400
T03C0.0440
%
T01
X11100Y8600
X9100Y9100
X8100Y9100
X9100Y10100
X9100Y12100
X8600Y13600
X24100Y5100
T02
X2100Y3550
X2100Y4650
X8600Y7100
X9600Y7100
X10600Y7100
X11600Y7100
X12600Y7100
X13600Y7100
X14600Y7100
X15600Y7100
X16600Y7100
X17600Y7100
X18600Y7100
X19600Y7100
X20600Y7100
X21600Y7100
X22600Y7100
X22600Y1600
X21600Y1600
X20600Y1600
X19600Y1600
X18600Y1600
X17600Y1600
X16600Y1600
X15600Y1600
X14600Y1600
X13600Y1600
X12600Y1600
X11600Y1600
X10600Y1600
X9600Y1600
X8600Y1600
T03
X8600Y11100
X7600Y11100
X6600Y11100
X5600Y11100
X4600Y11100
X3600Y11100
X2600Y11100
X1600Y11100
X1600Y16100
X2600Y16100
X3600Y16100
X4600Y16100
X5600Y16100
X6600Y16100
X7600Y16100
X8600Y16100
X12100Y16100
X13100Y16100
X14100Y16100
X15100Y16100
X16100Y16100
X17100Y16100
X18100Y16100
X19100Y16100
X22600Y16100
X23600Y16100
X24600Y16100
X25600Y16100
X26600Y16100
X27600Y16100
X28600Y16100
X29600Y16100
X29600Y11100
X28600Y11100
X27600Y11100
X26600Y11100
X25600Y11100
X24600Y11100
X23600Y11100
X22600Y11100
X19100Y11100
X18100Y11100
X17100Y11100
X16100Y11100
X15100Y11100
X14100Y11100
X13100Y11100
X12100Y11100
X14100Y21100
X15100Y21100
X16100Y21100
X17100Y21100
X24600Y21100
X25600Y21100
X26600Y21100
X27600Y21100
X6600Y21100
X5600Y21100
X4600Y21100
X3600Y21100
M30
