%
M48
M72
T01C0.0300
T02C0.0400
T03C0.0440
%
T01
X8680Y8180
X10680Y9180
X10680Y10180
X9680Y12680
X12180Y13680
X10180Y14680
X12180Y18680
X18180Y18680
X19180Y14680
X19680Y13180
X21180Y11680
X22680Y12680
X20180Y9680
X19180Y8680
X22680Y8180
X24680Y8680
X26180Y8680
X25680Y7180
X22180Y5680
X21680Y5180
X22680Y3180
X16180Y4180
X15680Y2680
X11680Y3680
X15180Y6180
X3680Y13680
X29680Y12680
T02
X8680Y1680
X9680Y1680
X10680Y1680
X11680Y1680
X12680Y1680
X13680Y1680
X14680Y1680
X15680Y1680
X16680Y1680
X17680Y1680
X18680Y1680
X19680Y1680
X20680Y1680
X21680Y1680
X22680Y1680
X27680Y1680
X28680Y1680
X29680Y1680
X29680Y4680
X28680Y4680
X27680Y4680
X27680Y7180
X28680Y7180
X29680Y7180
X22680Y7180
X21680Y7180
X20680Y7180
X19680Y7180
X18680Y7180
X17680Y7180
X16680Y7180
X15680Y7180
X14680Y7180
X13680Y7180
X12680Y7180
X11680Y7180
X10680Y7180
X9680Y7180
X8680Y7180
X1180Y18130
X1180Y19230
T03
X3680Y21180
X4680Y21180
X5680Y21180
X6680Y21180
X6680Y16180
X5680Y16180
X4680Y16180
X3680Y16180
X2680Y16180
X1680Y16180
X7680Y16180
X8680Y16180
X12180Y16180
X13180Y16180
X14180Y16180
X15180Y16180
X16180Y16180
X17180Y16180
X18180Y16180
X19180Y16180
X22680Y16180
X23680Y16180
X24680Y16180
X25680Y16180
X26680Y16180
X27680Y16180
X28680Y16180
X29680Y16180
X29680Y11180
X28680Y11180
X27680Y11180
X26680Y11180
X25680Y11180
X24680Y11180
X23680Y11180
X22680Y11180
X19180Y11180
X18180Y11180
X17180Y11180
X16180Y11180
X15180Y11180
X14180Y11180
X13180Y11180
X12180Y11180
X8680Y11180
X7680Y11180
X6680Y11180
X5680Y11180
X4680Y11180
X3680Y11180
X2680Y11180
X1680Y11180
X14180Y21180
X15180Y21180
X16180Y21180
X17180Y21180
X24680Y21180
X25680Y21180
X26680Y21180
X27680Y21180
M30
