G75*
G70*
%OFA0B0*%
%FSLAX24Y24*%
%IPPOS*%
%LPD*%
%AMOC8*
5,1,8,0,0,1.08239X$1,22.5*
%
%ADD10C,0.0060*%
%ADD11C,0.0740*%
%ADD12C,0.0050*%
%ADD13C,0.0040*%
%ADD14C,0.0740*%
%ADD15C,0.0600*%
%ADD16C,0.0450*%
%ADD17C,0.0460*%
%ADD18C,0.0160*%
D10*
X000924Y002996D02*
X001030Y002996D01*
X001137Y003103D01*
X001137Y003637D01*
X000817Y003637D01*
X000710Y003530D01*
X000710Y003317D01*
X000817Y003210D01*
X001137Y003210D01*
X001355Y003210D02*
X001568Y003210D01*
X001461Y003210D02*
X001461Y003637D01*
X001355Y003637D01*
X001461Y003851D02*
X001461Y003957D01*
X001891Y003744D02*
X001891Y003317D01*
X001998Y003210D01*
X002214Y003210D02*
X002214Y003851D01*
X002321Y003637D02*
X002214Y003530D01*
X002321Y003637D02*
X002534Y003637D01*
X002641Y003530D01*
X002641Y003210D01*
X002858Y003317D02*
X002965Y003210D01*
X003286Y003210D01*
X003286Y003637D01*
X003503Y003637D02*
X003823Y003637D01*
X003930Y003530D01*
X003930Y003317D01*
X003823Y003210D01*
X003503Y003210D01*
X003503Y003851D01*
X002858Y003637D02*
X002858Y003317D01*
X001998Y003637D02*
X001784Y003637D01*
X004148Y003317D02*
X004254Y003317D01*
X004254Y003210D01*
X004148Y003210D01*
X004148Y003317D01*
X004470Y003317D02*
X004470Y003530D01*
X004577Y003637D01*
X004897Y003637D01*
X005114Y003530D02*
X005114Y003317D01*
X005221Y003210D01*
X005435Y003210D01*
X005541Y003317D01*
X005541Y003530D01*
X005435Y003637D01*
X005221Y003637D01*
X005114Y003530D01*
X004897Y003210D02*
X004577Y003210D01*
X004470Y003317D01*
X005759Y003210D02*
X005759Y003637D01*
X005866Y003637D01*
X005972Y003530D01*
X006079Y003637D01*
X006186Y003530D01*
X006186Y003210D01*
X005972Y003210D02*
X005972Y003530D01*
X006404Y003210D02*
X006831Y003851D01*
X007048Y003637D02*
X007262Y003637D01*
X007155Y003744D02*
X007155Y003317D01*
X007262Y003210D01*
X007478Y003210D02*
X007905Y003637D01*
X007478Y003637D02*
X007905Y003210D01*
X008122Y002996D02*
X008229Y002996D01*
X008336Y003103D01*
X008336Y003637D01*
X008336Y003851D02*
X008336Y003957D01*
X008659Y003637D02*
X008872Y003637D01*
X008979Y003530D01*
X008979Y003210D01*
X008659Y003210D01*
X008552Y003317D01*
X008659Y003424D01*
X008979Y003424D01*
X009197Y003637D02*
X009303Y003637D01*
X009410Y003530D01*
X009517Y003637D01*
X009624Y003530D01*
X009624Y003210D01*
X009410Y003210D02*
X009410Y003530D01*
X009197Y003637D02*
X009197Y003210D01*
X009841Y003210D02*
X009841Y003637D01*
X009948Y003637D01*
X010055Y003530D01*
X010161Y003637D01*
X010268Y003530D01*
X010268Y003210D01*
X010055Y003210D02*
X010055Y003530D01*
X010486Y003530D02*
X010486Y003317D01*
X010592Y003210D01*
X010806Y003210D01*
X010913Y003424D02*
X010486Y003424D01*
X010486Y003530D02*
X010592Y003637D01*
X010806Y003637D01*
X010913Y003530D01*
X010913Y003424D01*
X011130Y003424D02*
X011344Y003637D01*
X011450Y003637D01*
X011130Y003637D02*
X011130Y003210D01*
D11*
X010680Y001680D03*
X011680Y001680D03*
X012680Y001680D03*
X013680Y001680D03*
X014680Y001680D03*
X015680Y001680D03*
X016680Y001680D03*
X017680Y001680D03*
X018680Y001680D03*
X019680Y001680D03*
X020680Y001680D03*
X021680Y001680D03*
X022680Y001680D03*
X027680Y001680D03*
X028680Y001680D03*
X029680Y001680D03*
X029680Y004680D03*
X028680Y004680D03*
X027680Y004680D03*
X027680Y007180D03*
X028680Y007180D03*
X029680Y007180D03*
X022680Y007180D03*
X021680Y007180D03*
X020680Y007180D03*
X019680Y007180D03*
X018680Y007180D03*
X017680Y007180D03*
X016680Y007180D03*
X015680Y007180D03*
X014680Y007180D03*
X013680Y007180D03*
X012680Y007180D03*
X011680Y007180D03*
X010680Y007180D03*
X009680Y007180D03*
X008680Y007180D03*
X008680Y001680D03*
X009680Y001680D03*
D12*
X009000Y009735D02*
X008850Y009735D01*
X008775Y009810D01*
X008925Y009960D02*
X009000Y009960D01*
X009075Y009885D01*
X009075Y009810D01*
X009000Y009735D01*
X009000Y009960D02*
X009075Y010035D01*
X009075Y010110D01*
X009000Y010185D01*
X008850Y010185D01*
X008775Y010110D01*
X008614Y010110D02*
X008614Y009960D01*
X008539Y009885D01*
X008314Y009885D01*
X008314Y009735D02*
X008314Y010185D01*
X008539Y010185D01*
X008614Y010110D01*
X008154Y010185D02*
X008004Y010185D01*
X008079Y010185D02*
X008079Y009810D01*
X008004Y009735D01*
X007929Y009735D01*
X007854Y009810D01*
X007929Y014735D02*
X008004Y014735D01*
X008079Y014810D01*
X008079Y015185D01*
X008004Y015185D02*
X008154Y015185D01*
X008314Y015185D02*
X008539Y015185D01*
X008614Y015110D01*
X008614Y014960D01*
X008539Y014885D01*
X008314Y014885D01*
X008314Y014735D02*
X008314Y015185D01*
X008775Y014960D02*
X009075Y014960D01*
X009000Y014735D02*
X009000Y015185D01*
X008775Y014960D01*
X007929Y014735D02*
X007854Y014810D01*
X007000Y019735D02*
X007075Y019810D01*
X007075Y020110D01*
X007000Y020185D01*
X006850Y020185D01*
X006775Y020110D01*
X006775Y020035D01*
X006850Y019960D01*
X007075Y019960D01*
X007000Y019735D02*
X006850Y019735D01*
X006775Y019810D01*
X006614Y019960D02*
X006539Y019885D01*
X006314Y019885D01*
X006314Y019735D02*
X006314Y020185D01*
X006539Y020185D01*
X006614Y020110D01*
X006614Y019960D01*
X006154Y020185D02*
X006004Y020185D01*
X006079Y020185D02*
X006079Y019810D01*
X006004Y019735D01*
X005929Y019735D01*
X005854Y019810D01*
X015893Y019810D02*
X015968Y019735D01*
X016044Y019735D01*
X016119Y019810D01*
X016119Y020185D01*
X016044Y020185D02*
X016194Y020185D01*
X016354Y020185D02*
X016579Y020185D01*
X016654Y020110D01*
X016654Y019960D01*
X016579Y019885D01*
X016354Y019885D01*
X016354Y019735D02*
X016354Y020185D01*
X016814Y020035D02*
X016964Y020185D01*
X016964Y019735D01*
X016814Y019735D02*
X017114Y019735D01*
X017275Y019810D02*
X017275Y020110D01*
X017350Y020185D01*
X017500Y020185D01*
X017575Y020110D01*
X017275Y019810D01*
X017350Y019735D01*
X017500Y019735D01*
X017575Y019810D01*
X017575Y020110D01*
X018504Y015185D02*
X018654Y015185D01*
X018579Y015185D02*
X018579Y014810D01*
X018504Y014735D01*
X018429Y014735D01*
X018354Y014810D01*
X018814Y014735D02*
X018814Y015185D01*
X019039Y015185D01*
X019114Y015110D01*
X019114Y014960D01*
X019039Y014885D01*
X018814Y014885D01*
X019275Y014810D02*
X019350Y014735D01*
X019500Y014735D01*
X019575Y014810D01*
X019575Y014885D01*
X019500Y014960D01*
X019275Y014960D01*
X019275Y014810D01*
X019275Y014960D02*
X019425Y015110D01*
X019575Y015185D01*
X026393Y019810D02*
X026468Y019735D01*
X026544Y019735D01*
X026619Y019810D01*
X026619Y020185D01*
X026544Y020185D02*
X026694Y020185D01*
X026854Y020185D02*
X027079Y020185D01*
X027154Y020110D01*
X027154Y019960D01*
X027079Y019885D01*
X026854Y019885D01*
X026854Y019735D02*
X026854Y020185D01*
X027314Y020035D02*
X027464Y020185D01*
X027464Y019735D01*
X027314Y019735D02*
X027614Y019735D01*
X027775Y019735D02*
X028075Y019735D01*
X027925Y019735D02*
X027925Y020185D01*
X027775Y020035D01*
X029004Y015185D02*
X029154Y015185D01*
X029079Y015185D02*
X029079Y014810D01*
X029004Y014735D01*
X028929Y014735D01*
X028854Y014810D01*
X029314Y014735D02*
X029314Y015185D01*
X029539Y015185D01*
X029614Y015110D01*
X029614Y014960D01*
X029539Y014885D01*
X029314Y014885D01*
X029775Y014885D02*
X029775Y014810D01*
X029850Y014735D01*
X030000Y014735D01*
X030075Y014810D01*
X030075Y014885D01*
X030000Y014960D01*
X029850Y014960D01*
X029775Y015035D01*
X029775Y015110D01*
X029850Y015185D01*
X030000Y015185D01*
X030075Y015110D01*
X030075Y015035D01*
X030000Y014960D01*
X029850Y014960D02*
X029775Y014885D01*
X029775Y010185D02*
X030075Y010185D01*
X030075Y010110D01*
X029775Y009810D01*
X029775Y009735D01*
X029614Y009960D02*
X029539Y009885D01*
X029314Y009885D01*
X029314Y009735D02*
X029314Y010185D01*
X029539Y010185D01*
X029614Y010110D01*
X029614Y009960D01*
X029154Y010185D02*
X029004Y010185D01*
X029079Y010185D02*
X029079Y009810D01*
X029004Y009735D01*
X028929Y009735D01*
X028854Y009810D01*
X028781Y008375D02*
X028856Y008300D01*
X028856Y008225D01*
X028781Y008150D01*
X028856Y008075D01*
X028856Y008000D01*
X028781Y007925D01*
X028631Y007925D01*
X028556Y008000D01*
X028396Y007925D02*
X028096Y007925D01*
X028246Y007925D02*
X028246Y008375D01*
X028096Y008225D01*
X027936Y008150D02*
X027861Y008075D01*
X027635Y008075D01*
X027635Y007925D02*
X027635Y008375D01*
X027861Y008375D01*
X027936Y008300D01*
X027936Y008150D01*
X027475Y008375D02*
X027325Y008375D01*
X027400Y008375D02*
X027400Y008000D01*
X027325Y007925D01*
X027250Y007925D01*
X027175Y008000D01*
X028556Y008300D02*
X028631Y008375D01*
X028781Y008375D01*
X028781Y008150D02*
X028706Y008150D01*
X028556Y005875D02*
X028556Y005650D01*
X028706Y005725D01*
X028781Y005725D01*
X028856Y005650D01*
X028856Y005500D01*
X028781Y005425D01*
X028631Y005425D01*
X028556Y005500D01*
X028396Y005425D02*
X028096Y005425D01*
X028246Y005425D02*
X028246Y005875D01*
X028096Y005725D01*
X027936Y005800D02*
X027936Y005650D01*
X027861Y005575D01*
X027635Y005575D01*
X027635Y005425D02*
X027635Y005875D01*
X027861Y005875D01*
X027936Y005800D01*
X027475Y005875D02*
X027325Y005875D01*
X027400Y005875D02*
X027400Y005500D01*
X027325Y005425D01*
X027250Y005425D01*
X027175Y005500D01*
X028556Y005875D02*
X028856Y005875D01*
X028781Y002875D02*
X028556Y002650D01*
X028856Y002650D01*
X028781Y002425D02*
X028781Y002875D01*
X028246Y002875D02*
X028246Y002425D01*
X028096Y002425D02*
X028396Y002425D01*
X028096Y002725D02*
X028246Y002875D01*
X027936Y002800D02*
X027936Y002650D01*
X027861Y002575D01*
X027635Y002575D01*
X027635Y002425D02*
X027635Y002875D01*
X027861Y002875D01*
X027936Y002800D01*
X027475Y002875D02*
X027325Y002875D01*
X027400Y002875D02*
X027400Y002500D01*
X027325Y002425D01*
X027250Y002425D01*
X027175Y002500D01*
X023075Y000485D02*
X022775Y000485D01*
X022925Y000485D02*
X022925Y000935D01*
X022775Y000785D01*
X022614Y000710D02*
X022539Y000635D01*
X022314Y000635D01*
X022314Y000485D02*
X022314Y000935D01*
X022539Y000935D01*
X022614Y000860D01*
X022614Y000710D01*
X022154Y000935D02*
X022004Y000935D01*
X022079Y000935D02*
X022079Y000560D01*
X022004Y000485D01*
X021929Y000485D01*
X021854Y000560D01*
X021929Y005985D02*
X022004Y005985D01*
X022079Y006060D01*
X022079Y006435D01*
X022004Y006435D02*
X022154Y006435D01*
X022314Y006435D02*
X022539Y006435D01*
X022614Y006360D01*
X022614Y006210D01*
X022539Y006135D01*
X022314Y006135D01*
X022314Y005985D02*
X022314Y006435D01*
X022775Y006360D02*
X022850Y006435D01*
X023000Y006435D01*
X023075Y006360D01*
X023075Y006285D01*
X022775Y005985D01*
X023075Y005985D01*
X021929Y005985D02*
X021854Y006060D01*
X019500Y009735D02*
X019350Y009735D01*
X019275Y009810D01*
X019275Y009960D02*
X019425Y010035D01*
X019500Y010035D01*
X019575Y009960D01*
X019575Y009810D01*
X019500Y009735D01*
X019275Y009960D02*
X019275Y010185D01*
X019575Y010185D01*
X019114Y010110D02*
X019114Y009960D01*
X019039Y009885D01*
X018814Y009885D01*
X018814Y009735D02*
X018814Y010185D01*
X019039Y010185D01*
X019114Y010110D01*
X018654Y010185D02*
X018504Y010185D01*
X018579Y010185D02*
X018579Y009810D01*
X018504Y009735D01*
X018429Y009735D01*
X018354Y009810D01*
D13*
X021819Y008410D02*
X021819Y007950D01*
X022126Y007950D02*
X022126Y008410D01*
X021972Y008257D01*
X021819Y008410D01*
X022279Y008257D02*
X022433Y008410D01*
X022433Y007950D01*
X022586Y007950D02*
X022279Y007950D01*
X022740Y008027D02*
X022816Y007950D01*
X022970Y007950D01*
X023047Y008027D01*
X023047Y008180D01*
X022970Y008257D01*
X022893Y008257D01*
X022740Y008180D01*
X022740Y008410D01*
X023047Y008410D01*
X023047Y002910D02*
X022740Y002910D01*
X022740Y002680D01*
X022893Y002757D01*
X022970Y002757D01*
X023047Y002680D01*
X023047Y002527D01*
X022970Y002450D01*
X022816Y002450D01*
X022740Y002527D01*
X022586Y002450D02*
X022279Y002450D01*
X022126Y002450D02*
X022126Y002910D01*
X021972Y002757D01*
X021819Y002910D01*
X021819Y002450D01*
X022279Y002757D02*
X022433Y002910D01*
X022433Y002450D01*
X002360Y017935D02*
X002360Y018012D01*
X002283Y018089D01*
X001900Y018089D01*
X001900Y018165D02*
X001900Y018012D01*
X001900Y018319D02*
X001900Y018549D01*
X001976Y018626D01*
X002130Y018626D01*
X002207Y018549D01*
X002207Y018319D01*
X002360Y018319D02*
X001900Y018319D01*
X002053Y018779D02*
X001900Y018933D01*
X002360Y018933D01*
X002360Y019086D02*
X002360Y018779D01*
X002360Y019240D02*
X002053Y019547D01*
X001976Y019547D01*
X001900Y019470D01*
X001900Y019316D01*
X001976Y019240D01*
X002360Y019240D02*
X002360Y019547D01*
X002360Y017935D02*
X002283Y017858D01*
D14*
X002680Y016550D02*
X002680Y015810D01*
X001680Y015810D02*
X001680Y016550D01*
X003680Y016550D02*
X003680Y015810D01*
X004680Y015810D02*
X004680Y016550D01*
X005680Y016550D02*
X005680Y015810D01*
X006680Y015810D02*
X006680Y016550D01*
X007680Y016550D02*
X007680Y015810D01*
X008680Y015810D02*
X008680Y016550D01*
X012180Y016550D02*
X012180Y015810D01*
X013180Y015810D02*
X013180Y016550D01*
X014180Y016550D02*
X014180Y015810D01*
X015180Y015810D02*
X015180Y016550D01*
X016180Y016550D02*
X016180Y015810D01*
X017180Y015810D02*
X017180Y016550D01*
X018180Y016550D02*
X018180Y015810D01*
X019180Y015810D02*
X019180Y016550D01*
X022680Y016550D02*
X022680Y015810D01*
X023680Y015810D02*
X023680Y016550D01*
X024680Y016550D02*
X024680Y015810D01*
X025680Y015810D02*
X025680Y016550D01*
X026680Y016550D02*
X026680Y015810D01*
X027680Y015810D02*
X027680Y016550D01*
X028680Y016550D02*
X028680Y015810D01*
X029680Y015810D02*
X029680Y016550D01*
X027680Y020810D02*
X027680Y021550D01*
X026680Y021550D02*
X026680Y020810D01*
X025680Y020810D02*
X025680Y021550D01*
X024680Y021550D02*
X024680Y020810D01*
X017180Y020810D02*
X017180Y021550D01*
X016180Y021550D02*
X016180Y020810D01*
X015180Y020810D02*
X015180Y021550D01*
X014180Y021550D02*
X014180Y020810D01*
X006680Y020810D02*
X006680Y021550D01*
X005680Y021550D02*
X005680Y020810D01*
X004680Y020810D02*
X004680Y021550D01*
X003680Y021550D02*
X003680Y020810D01*
X003680Y011550D02*
X003680Y010810D01*
X002680Y010810D02*
X002680Y011550D01*
X001680Y011550D02*
X001680Y010810D01*
X004680Y010810D02*
X004680Y011550D01*
X005680Y011550D02*
X005680Y010810D01*
X006680Y010810D02*
X006680Y011550D01*
X007680Y011550D02*
X007680Y010810D01*
X008680Y010810D02*
X008680Y011550D01*
X012180Y011550D02*
X012180Y010810D01*
X013180Y010810D02*
X013180Y011550D01*
X014180Y011550D02*
X014180Y010810D01*
X015180Y010810D02*
X015180Y011550D01*
X016180Y011550D02*
X016180Y010810D01*
X017180Y010810D02*
X017180Y011550D01*
X018180Y011550D02*
X018180Y010810D01*
X019180Y010810D02*
X019180Y011550D01*
X022680Y011550D02*
X022680Y010810D01*
X023680Y010810D02*
X023680Y011550D01*
X024680Y011550D02*
X024680Y010810D01*
X025680Y010810D02*
X025680Y011550D01*
X026680Y011550D02*
X026680Y010810D01*
X027680Y010810D02*
X027680Y011550D01*
X028680Y011550D02*
X028680Y010810D01*
X029680Y010810D02*
X029680Y011550D01*
D15*
X001480Y018130D02*
X000880Y018130D01*
X000880Y019230D02*
X001480Y019230D01*
D16*
X001180Y019230D02*
X001180Y019180D01*
X010680Y019180D01*
X012180Y017680D01*
X022680Y017680D01*
X023680Y016680D01*
X023680Y016180D01*
X021180Y014180D02*
X028180Y014180D01*
X029680Y015680D01*
X029680Y016180D01*
X028680Y016180D02*
X028680Y016680D01*
X026680Y018680D01*
X018180Y018680D01*
X012180Y018680D01*
X012180Y017680D02*
X013180Y016680D01*
X013180Y016180D01*
X012180Y016180D02*
X011680Y016180D01*
X013180Y014680D01*
X019180Y014680D01*
X019180Y013680D02*
X017180Y013680D01*
X015180Y011680D01*
X015180Y011180D01*
X015180Y011680D02*
X014180Y012680D01*
X013680Y012180D01*
X013180Y012680D01*
X009680Y012680D01*
X008680Y012680D02*
X002680Y012680D01*
X002680Y011180D01*
X001680Y011180D02*
X001680Y010680D01*
X003180Y009180D01*
X010680Y009180D01*
X011680Y009180D02*
X011680Y007180D01*
X013180Y008680D02*
X010180Y011680D01*
X009680Y011680D01*
X008680Y012680D01*
X006680Y011180D02*
X005680Y011180D01*
X002680Y012680D02*
X002680Y013680D01*
X003680Y014680D01*
X010180Y014680D01*
X010180Y016180D02*
X008680Y017680D01*
X001180Y017680D01*
X001180Y018130D01*
X001180Y018180D01*
X001180Y017680D02*
X001180Y016680D01*
X001680Y016180D01*
X003680Y013680D02*
X012180Y013680D01*
X012180Y011180D02*
X012180Y010680D01*
X013180Y009680D01*
X020180Y009680D01*
X019180Y008680D02*
X013180Y008680D01*
X011680Y009180D02*
X010680Y010180D01*
X008680Y008180D02*
X007680Y007180D01*
X010180Y004680D01*
X012680Y004680D01*
X015680Y001680D01*
X015680Y002680D02*
X015680Y003680D01*
X015180Y004180D01*
X015180Y006180D01*
X016180Y004180D02*
X019680Y004180D01*
X022180Y006680D01*
X022680Y006180D01*
X023680Y007180D01*
X023680Y008180D01*
X019180Y012680D01*
X018180Y011680D01*
X018180Y011180D01*
X017180Y011180D02*
X016180Y011180D01*
X019180Y011180D02*
X019680Y011180D01*
X022680Y008180D01*
X024680Y008680D02*
X022680Y010680D01*
X022680Y011180D01*
X023680Y011180D02*
X023680Y010680D01*
X024680Y009680D01*
X026180Y009680D01*
X028680Y007180D01*
X029680Y007180D02*
X029680Y004680D01*
X028680Y003680D01*
X023180Y003680D01*
X021680Y005180D01*
X022180Y005680D02*
X022680Y005180D01*
X023680Y005180D01*
X025680Y007180D01*
X026680Y006680D02*
X026680Y008180D01*
X026180Y008680D01*
X026680Y006680D02*
X028680Y004680D01*
X030680Y004680D02*
X030680Y011680D01*
X029680Y012680D01*
X027680Y011180D02*
X026680Y011180D01*
X025680Y011180D02*
X025680Y011680D01*
X024680Y012680D01*
X022680Y012680D01*
X021180Y011680D02*
X021180Y014180D01*
X019180Y016180D01*
X019180Y013680D02*
X019680Y013180D01*
X011680Y016180D02*
X010180Y016180D01*
X011680Y003680D02*
X011680Y001680D01*
X017680Y001680D02*
X019180Y003180D01*
X022680Y003180D01*
X028680Y002680D02*
X028680Y001680D01*
X028680Y002680D02*
X030680Y004680D01*
D17*
X025680Y007180D03*
X026180Y008680D03*
X024680Y008680D03*
X022680Y008180D03*
X020180Y009680D03*
X019180Y008680D03*
X022180Y005680D03*
X021680Y005180D03*
X022680Y003180D03*
X016180Y004180D03*
X015680Y002680D03*
X011680Y003680D03*
X015180Y006180D03*
X010680Y009180D03*
X010680Y010180D03*
X008680Y008180D03*
X009680Y012680D03*
X012180Y013680D03*
X010180Y014680D03*
X012180Y018680D03*
X018180Y018680D03*
X019180Y014680D03*
X019680Y013180D03*
X021180Y011680D03*
X022680Y012680D03*
X029680Y012680D03*
X003680Y013680D03*
D18*
X000660Y013180D02*
X000660Y000660D01*
X031692Y000660D01*
X031692Y013180D01*
X029910Y013180D01*
X029992Y013146D01*
X030146Y012992D01*
X030151Y012979D01*
X031142Y011989D01*
X031225Y011788D01*
X031225Y004572D01*
X031142Y004371D01*
X030989Y004218D01*
X029225Y002454D01*
X029225Y002201D01*
X029289Y002265D01*
X029543Y002370D01*
X029817Y002370D01*
X030071Y002265D01*
X030265Y002071D01*
X030370Y001817D01*
X030370Y001543D01*
X030265Y001289D01*
X030071Y001095D01*
X029817Y000990D01*
X029543Y000990D01*
X029289Y001095D01*
X029180Y001204D01*
X029071Y001095D01*
X028817Y000990D01*
X028543Y000990D01*
X028289Y001095D01*
X028095Y001289D01*
X028087Y001309D01*
X028038Y001260D01*
X027968Y001210D01*
X027891Y001170D01*
X027809Y001144D01*
X027723Y001130D01*
X027700Y001130D01*
X027700Y001660D01*
X027660Y001660D01*
X027130Y001660D01*
X027130Y001637D01*
X027144Y001551D01*
X027170Y001469D01*
X027210Y001392D01*
X027260Y001322D01*
X027322Y001260D01*
X027392Y001210D01*
X027469Y001170D01*
X027551Y001144D01*
X027637Y001130D01*
X027660Y001130D01*
X027660Y001660D01*
X027660Y001700D01*
X027660Y002230D01*
X027637Y002230D01*
X027551Y002216D01*
X027469Y002190D01*
X027392Y002150D01*
X027322Y002100D01*
X027260Y002038D01*
X027210Y001968D01*
X027170Y001891D01*
X027144Y001809D01*
X027130Y001723D01*
X027130Y001700D01*
X027660Y001700D01*
X027700Y001700D01*
X027700Y002230D01*
X027723Y002230D01*
X027809Y002216D01*
X027891Y002190D01*
X027968Y002150D01*
X028038Y002100D01*
X028087Y002051D01*
X028095Y002071D01*
X028135Y002111D01*
X028135Y002788D01*
X028218Y002989D01*
X028364Y003135D01*
X023230Y003135D01*
X023230Y003071D01*
X023146Y002868D01*
X022992Y002714D01*
X022789Y002630D01*
X022571Y002630D01*
X022559Y002635D01*
X019406Y002635D01*
X019046Y002275D01*
X019071Y002265D01*
X019180Y002156D01*
X019289Y002265D01*
X019543Y002370D01*
X019817Y002370D01*
X020071Y002265D01*
X020180Y002156D01*
X020289Y002265D01*
X020543Y002370D01*
X020817Y002370D01*
X021071Y002265D01*
X021180Y002156D01*
X021289Y002265D01*
X021543Y002370D01*
X021817Y002370D01*
X022071Y002265D01*
X022180Y002156D01*
X022289Y002265D01*
X022543Y002370D01*
X022817Y002370D01*
X023071Y002265D01*
X023265Y002071D01*
X023370Y001817D01*
X023370Y001543D01*
X023265Y001289D01*
X023071Y001095D01*
X022817Y000990D01*
X022543Y000990D01*
X022289Y001095D01*
X022180Y001204D01*
X022071Y001095D01*
X021817Y000990D01*
X021543Y000990D01*
X021289Y001095D01*
X021180Y001204D01*
X021071Y001095D01*
X020817Y000990D01*
X020543Y000990D01*
X020289Y001095D01*
X020180Y001204D01*
X020071Y001095D01*
X019817Y000990D01*
X019543Y000990D01*
X019289Y001095D01*
X019180Y001204D01*
X019071Y001095D01*
X018817Y000990D01*
X018543Y000990D01*
X018289Y001095D01*
X018180Y001204D01*
X018071Y001095D01*
X017817Y000990D01*
X017543Y000990D01*
X017289Y001095D01*
X017180Y001204D01*
X017071Y001095D01*
X016817Y000990D01*
X016543Y000990D01*
X016289Y001095D01*
X016180Y001204D01*
X016071Y001095D01*
X015817Y000990D01*
X015543Y000990D01*
X015289Y001095D01*
X015180Y001204D01*
X015071Y001095D01*
X014817Y000990D01*
X014543Y000990D01*
X014289Y001095D01*
X014180Y001204D01*
X014071Y001095D01*
X013817Y000990D01*
X013543Y000990D01*
X013289Y001095D01*
X013180Y001204D01*
X013071Y001095D01*
X012817Y000990D01*
X012543Y000990D01*
X012289Y001095D01*
X012095Y001289D01*
X012087Y001309D01*
X012038Y001260D01*
X011968Y001210D01*
X011891Y001170D01*
X011809Y001144D01*
X011723Y001130D01*
X011700Y001130D01*
X011700Y001660D01*
X011660Y001660D01*
X011660Y001130D01*
X011637Y001130D01*
X011551Y001144D01*
X011469Y001170D01*
X011392Y001210D01*
X011322Y001260D01*
X011273Y001309D01*
X011265Y001289D01*
X011071Y001095D01*
X010817Y000990D01*
X010543Y000990D01*
X010289Y001095D01*
X010180Y001204D01*
X010071Y001095D01*
X009817Y000990D01*
X009543Y000990D01*
X009289Y001095D01*
X009180Y001204D01*
X009071Y001095D01*
X008817Y000990D01*
X008543Y000990D01*
X008289Y001095D01*
X008095Y001289D01*
X007990Y001543D01*
X007990Y001817D01*
X008095Y002071D01*
X008289Y002265D01*
X008543Y002370D01*
X008817Y002370D01*
X009071Y002265D01*
X009180Y002156D01*
X009289Y002265D01*
X009543Y002370D01*
X009817Y002370D01*
X010071Y002265D01*
X010180Y002156D01*
X010289Y002265D01*
X010543Y002370D01*
X010817Y002370D01*
X011071Y002265D01*
X011265Y002071D01*
X011273Y002051D01*
X011322Y002100D01*
X011392Y002150D01*
X011469Y002190D01*
X011551Y002216D01*
X011637Y002230D01*
X011660Y002230D01*
X011660Y001700D01*
X011700Y001700D01*
X011700Y002230D01*
X011723Y002230D01*
X011809Y002216D01*
X011891Y002190D01*
X011968Y002150D01*
X012038Y002100D01*
X012087Y002051D01*
X012095Y002071D01*
X012289Y002265D01*
X012543Y002370D01*
X012817Y002370D01*
X013071Y002265D01*
X013180Y002156D01*
X013289Y002265D01*
X013543Y002370D01*
X013817Y002370D01*
X014071Y002265D01*
X014180Y002156D01*
X014289Y002265D01*
X014314Y002275D01*
X012454Y004135D01*
X010072Y004135D01*
X009871Y004218D01*
X009718Y004371D01*
X007218Y006871D01*
X007135Y007072D01*
X007135Y007288D01*
X007218Y007489D01*
X007371Y007642D01*
X008209Y008479D01*
X008214Y008492D01*
X008357Y008635D01*
X003072Y008635D01*
X002871Y008718D01*
X002718Y008871D01*
X001417Y010172D01*
X001289Y010225D01*
X001095Y010419D01*
X000990Y010673D01*
X000990Y011687D01*
X001095Y011941D01*
X001289Y012135D01*
X001543Y012240D01*
X001817Y012240D01*
X002071Y012135D01*
X002135Y012071D01*
X002135Y013180D01*
X000660Y013180D01*
X000660Y013177D02*
X002135Y013177D01*
X002135Y013019D02*
X000660Y013019D01*
X000660Y012860D02*
X002135Y012860D01*
X002135Y012702D02*
X000660Y012702D01*
X000660Y012543D02*
X002135Y012543D01*
X002135Y012385D02*
X000660Y012385D01*
X000660Y012226D02*
X001509Y012226D01*
X001222Y012068D02*
X000660Y012068D01*
X000660Y011909D02*
X001082Y011909D01*
X001016Y011751D02*
X000660Y011751D01*
X000660Y011592D02*
X000990Y011592D01*
X000990Y011434D02*
X000660Y011434D01*
X000660Y011275D02*
X000990Y011275D01*
X000990Y011117D02*
X000660Y011117D01*
X000660Y010958D02*
X000990Y010958D01*
X000990Y010800D02*
X000660Y010800D01*
X000660Y010641D02*
X001003Y010641D01*
X001069Y010483D02*
X000660Y010483D01*
X000660Y010324D02*
X001190Y010324D01*
X001424Y010166D02*
X000660Y010166D01*
X000660Y010007D02*
X001582Y010007D01*
X001741Y009849D02*
X000660Y009849D01*
X000660Y009690D02*
X001899Y009690D01*
X002058Y009532D02*
X000660Y009532D01*
X000660Y009373D02*
X002216Y009373D01*
X002375Y009215D02*
X000660Y009215D01*
X000660Y009056D02*
X002533Y009056D01*
X002692Y008898D02*
X000660Y008898D01*
X000660Y008739D02*
X002850Y008739D01*
X000660Y008581D02*
X008303Y008581D01*
X008151Y008422D02*
X000660Y008422D01*
X000660Y008264D02*
X007993Y008264D01*
X007834Y008105D02*
X000660Y008105D01*
X000660Y007947D02*
X007676Y007947D01*
X007517Y007788D02*
X000660Y007788D01*
X000660Y007630D02*
X007359Y007630D01*
X007211Y007471D02*
X000660Y007471D01*
X000660Y007313D02*
X007145Y007313D01*
X007135Y007154D02*
X000660Y007154D01*
X000660Y006996D02*
X007167Y006996D01*
X007252Y006837D02*
X000660Y006837D01*
X000660Y006679D02*
X007411Y006679D01*
X007569Y006520D02*
X000660Y006520D01*
X000660Y006362D02*
X007728Y006362D01*
X007886Y006203D02*
X000660Y006203D01*
X000660Y006045D02*
X008045Y006045D01*
X008203Y005886D02*
X000660Y005886D01*
X000660Y005728D02*
X008362Y005728D01*
X008520Y005569D02*
X000660Y005569D01*
X000660Y005411D02*
X008679Y005411D01*
X008837Y005252D02*
X000660Y005252D01*
X000660Y005094D02*
X008996Y005094D01*
X009154Y004935D02*
X000660Y004935D01*
X000660Y004777D02*
X009313Y004777D01*
X009471Y004618D02*
X000660Y004618D01*
X000660Y004460D02*
X009630Y004460D01*
X009788Y004301D02*
X000660Y004301D01*
X000660Y004143D02*
X010053Y004143D01*
X010406Y005225D02*
X012572Y005225D01*
X012788Y005225D01*
X012989Y005142D01*
X015135Y002996D01*
X015135Y003454D01*
X014871Y003718D01*
X014871Y003718D01*
X014718Y003871D01*
X014635Y004072D01*
X014635Y006059D01*
X014630Y006071D01*
X014630Y006289D01*
X014713Y006490D01*
X014543Y006490D01*
X014289Y006595D01*
X014180Y006704D01*
X014071Y006595D01*
X013817Y006490D01*
X013543Y006490D01*
X013289Y006595D01*
X013180Y006704D01*
X013071Y006595D01*
X012817Y006490D01*
X012543Y006490D01*
X012289Y006595D01*
X012180Y006704D01*
X012071Y006595D01*
X011817Y006490D01*
X011543Y006490D01*
X011289Y006595D01*
X011180Y006704D01*
X011071Y006595D01*
X010817Y006490D01*
X010543Y006490D01*
X010289Y006595D01*
X010095Y006789D01*
X010087Y006809D01*
X010038Y006760D01*
X009968Y006710D01*
X009891Y006670D01*
X009809Y006644D01*
X009723Y006630D01*
X009700Y006630D01*
X009700Y007160D01*
X009660Y007160D01*
X009660Y006630D01*
X009637Y006630D01*
X009551Y006644D01*
X009469Y006670D01*
X009392Y006710D01*
X009322Y006760D01*
X009273Y006809D01*
X009265Y006789D01*
X009071Y006595D01*
X009046Y006585D01*
X010406Y005225D01*
X010379Y005252D02*
X014635Y005252D01*
X014635Y005094D02*
X013037Y005094D01*
X013196Y004935D02*
X014635Y004935D01*
X014635Y004777D02*
X013354Y004777D01*
X013513Y004618D02*
X014635Y004618D01*
X014635Y004460D02*
X013671Y004460D01*
X013830Y004301D02*
X014635Y004301D01*
X014635Y004143D02*
X013988Y004143D01*
X014147Y003984D02*
X014671Y003984D01*
X014764Y003826D02*
X014305Y003826D01*
X014464Y003667D02*
X014922Y003667D01*
X015081Y003509D02*
X014622Y003509D01*
X014781Y003350D02*
X015135Y003350D01*
X015135Y003192D02*
X014939Y003192D01*
X015098Y003033D02*
X015135Y003033D01*
X014190Y002399D02*
X000660Y002399D01*
X000660Y002241D02*
X008265Y002241D01*
X008106Y002082D02*
X000660Y002082D01*
X000660Y001924D02*
X008034Y001924D01*
X007990Y001765D02*
X000660Y001765D01*
X000660Y001607D02*
X007990Y001607D01*
X008029Y001448D02*
X000660Y001448D01*
X000660Y001290D02*
X008095Y001290D01*
X008253Y001131D02*
X000660Y001131D01*
X000660Y000973D02*
X031692Y000973D01*
X031692Y001131D02*
X030107Y001131D01*
X030265Y001290D02*
X031692Y001290D01*
X031692Y001448D02*
X030331Y001448D01*
X030370Y001607D02*
X031692Y001607D01*
X031692Y001765D02*
X030370Y001765D01*
X030326Y001924D02*
X031692Y001924D01*
X031692Y002082D02*
X030254Y002082D01*
X030095Y002241D02*
X031692Y002241D01*
X031692Y002399D02*
X029225Y002399D01*
X029225Y002241D02*
X029265Y002241D01*
X029328Y002558D02*
X031692Y002558D01*
X031692Y002716D02*
X029487Y002716D01*
X029645Y002875D02*
X031692Y002875D01*
X031692Y003033D02*
X029804Y003033D01*
X029962Y003192D02*
X031692Y003192D01*
X031692Y003350D02*
X030121Y003350D01*
X030279Y003509D02*
X031692Y003509D01*
X031692Y003667D02*
X030438Y003667D01*
X030596Y003826D02*
X031692Y003826D01*
X031692Y003984D02*
X030755Y003984D01*
X030913Y004143D02*
X031692Y004143D01*
X031692Y004301D02*
X031072Y004301D01*
X031179Y004460D02*
X031692Y004460D01*
X031692Y004618D02*
X031225Y004618D01*
X031225Y004777D02*
X031692Y004777D01*
X031692Y004935D02*
X031225Y004935D01*
X031225Y005094D02*
X031692Y005094D01*
X031692Y005252D02*
X031225Y005252D01*
X031225Y005411D02*
X031692Y005411D01*
X031692Y005569D02*
X031225Y005569D01*
X031225Y005728D02*
X031692Y005728D01*
X031692Y005886D02*
X031225Y005886D01*
X031225Y006045D02*
X031692Y006045D01*
X031692Y006203D02*
X031225Y006203D01*
X031225Y006362D02*
X031692Y006362D01*
X031692Y006520D02*
X031225Y006520D01*
X031225Y006679D02*
X031692Y006679D01*
X031692Y006837D02*
X031225Y006837D01*
X031225Y006996D02*
X031692Y006996D01*
X031692Y007154D02*
X031225Y007154D01*
X031225Y007313D02*
X031692Y007313D01*
X031692Y007471D02*
X031225Y007471D01*
X031225Y007630D02*
X031692Y007630D01*
X031692Y007788D02*
X031225Y007788D01*
X031225Y007947D02*
X031692Y007947D01*
X031692Y008105D02*
X031225Y008105D01*
X031225Y008264D02*
X031692Y008264D01*
X031692Y008422D02*
X031225Y008422D01*
X031225Y008581D02*
X031692Y008581D01*
X031692Y008739D02*
X031225Y008739D01*
X031225Y008898D02*
X031692Y008898D01*
X031692Y009056D02*
X031225Y009056D01*
X031225Y009215D02*
X031692Y009215D01*
X031692Y009373D02*
X031225Y009373D01*
X031225Y009532D02*
X031692Y009532D01*
X031692Y009690D02*
X031225Y009690D01*
X031225Y009849D02*
X031692Y009849D01*
X031692Y010007D02*
X031225Y010007D01*
X031225Y010166D02*
X031692Y010166D01*
X031692Y010324D02*
X031225Y010324D01*
X031225Y010483D02*
X031692Y010483D01*
X031692Y010641D02*
X031225Y010641D01*
X031225Y010800D02*
X031692Y010800D01*
X031692Y010958D02*
X031225Y010958D01*
X031225Y011117D02*
X031692Y011117D01*
X031692Y011275D02*
X031225Y011275D01*
X031225Y011434D02*
X031692Y011434D01*
X031692Y011592D02*
X031225Y011592D01*
X031225Y011751D02*
X031692Y011751D01*
X031692Y011909D02*
X031175Y011909D01*
X031063Y012068D02*
X031692Y012068D01*
X031692Y012226D02*
X030905Y012226D01*
X030746Y012385D02*
X031692Y012385D01*
X031692Y012543D02*
X030588Y012543D01*
X030429Y012702D02*
X031692Y012702D01*
X031692Y012860D02*
X030271Y012860D01*
X030119Y013019D02*
X031692Y013019D01*
X031692Y013177D02*
X029917Y013177D01*
X028899Y014128D02*
X031692Y014128D01*
X031692Y013970D02*
X028740Y013970D01*
X028642Y013871D02*
X029943Y015172D01*
X030071Y015225D01*
X030265Y015419D01*
X030370Y015673D01*
X030370Y016687D01*
X030265Y016941D01*
X030071Y017135D01*
X029817Y017240D01*
X029543Y017240D01*
X029289Y017135D01*
X029180Y017026D01*
X029071Y017135D01*
X028943Y017188D01*
X026989Y019142D01*
X026788Y019225D01*
X018301Y019225D01*
X018289Y019230D01*
X018071Y019230D01*
X018059Y019225D01*
X012301Y019225D01*
X012289Y019230D01*
X012071Y019230D01*
X011868Y019146D01*
X011714Y018992D01*
X011630Y018789D01*
X011630Y018571D01*
X011714Y018368D01*
X011868Y018214D01*
X012071Y018130D01*
X012289Y018130D01*
X012301Y018135D01*
X018059Y018135D01*
X018071Y018130D01*
X018289Y018130D01*
X018301Y018135D01*
X026454Y018135D01*
X027406Y017183D01*
X027289Y017135D01*
X027180Y017026D01*
X027071Y017135D01*
X026817Y017240D01*
X026543Y017240D01*
X026289Y017135D01*
X026180Y017026D01*
X026071Y017135D01*
X025817Y017240D01*
X025543Y017240D01*
X025289Y017135D01*
X025180Y017026D01*
X025071Y017135D01*
X024817Y017240D01*
X024543Y017240D01*
X024289Y017135D01*
X024095Y016941D01*
X024087Y016921D01*
X024038Y016970D01*
X023968Y017020D01*
X023891Y017060D01*
X023809Y017086D01*
X023723Y017100D01*
X023710Y017100D01*
X023710Y016210D01*
X023650Y016210D01*
X023650Y017100D01*
X023637Y017100D01*
X023551Y017086D01*
X023469Y017060D01*
X023392Y017020D01*
X023322Y016970D01*
X023273Y016921D01*
X023265Y016941D01*
X023071Y017135D01*
X022817Y017240D01*
X022543Y017240D01*
X022289Y017135D01*
X022095Y016941D01*
X021990Y016687D01*
X021990Y015673D01*
X022095Y015419D01*
X022289Y015225D01*
X022543Y015120D01*
X022817Y015120D01*
X023071Y015225D01*
X023265Y015419D01*
X023273Y015439D01*
X023322Y015390D01*
X023392Y015340D01*
X023469Y015300D01*
X023551Y015274D01*
X023637Y015260D01*
X023650Y015260D01*
X023650Y016150D01*
X023710Y016150D01*
X023710Y015260D01*
X023723Y015260D01*
X023809Y015274D01*
X023891Y015300D01*
X023968Y015340D01*
X024038Y015390D01*
X024087Y015439D01*
X024095Y015419D01*
X024289Y015225D01*
X024543Y015120D01*
X024817Y015120D01*
X025071Y015225D01*
X025180Y015334D01*
X025289Y015225D01*
X025543Y015120D01*
X025817Y015120D01*
X026071Y015225D01*
X026180Y015334D01*
X026289Y015225D01*
X026543Y015120D01*
X026817Y015120D01*
X027071Y015225D01*
X027180Y015334D01*
X027289Y015225D01*
X027543Y015120D01*
X027817Y015120D01*
X028071Y015225D01*
X028180Y015334D01*
X028289Y015225D01*
X028406Y015177D01*
X027954Y014725D01*
X021406Y014725D01*
X019870Y016261D01*
X019870Y016687D01*
X019765Y016941D01*
X019571Y017135D01*
X019317Y017240D01*
X019043Y017240D01*
X018789Y017135D01*
X018680Y017026D01*
X018571Y017135D01*
X018317Y017240D01*
X018043Y017240D01*
X017789Y017135D01*
X017680Y017026D01*
X017571Y017135D01*
X017317Y017240D01*
X017043Y017240D01*
X016789Y017135D01*
X016680Y017026D01*
X016571Y017135D01*
X016317Y017240D01*
X016043Y017240D01*
X015789Y017135D01*
X015680Y017026D01*
X015571Y017135D01*
X015317Y017240D01*
X015043Y017240D01*
X014789Y017135D01*
X014680Y017026D01*
X014571Y017135D01*
X014317Y017240D01*
X014043Y017240D01*
X013789Y017135D01*
X013595Y016941D01*
X013587Y016921D01*
X013538Y016970D01*
X013468Y017020D01*
X013391Y017060D01*
X013309Y017086D01*
X013223Y017100D01*
X013210Y017100D01*
X013210Y016210D01*
X013150Y016210D01*
X013150Y017100D01*
X013137Y017100D01*
X013051Y017086D01*
X012969Y017060D01*
X012892Y017020D01*
X012822Y016970D01*
X012773Y016921D01*
X012765Y016941D01*
X012571Y017135D01*
X012317Y017240D01*
X012043Y017240D01*
X011789Y017135D01*
X011595Y016941D01*
X011506Y016725D01*
X010406Y016725D01*
X009142Y017989D01*
X008989Y018142D01*
X008788Y018225D01*
X002100Y018225D01*
X002100Y018253D01*
X002006Y018481D01*
X001831Y018656D01*
X001603Y018750D01*
X000757Y018750D01*
X000660Y018710D01*
X000660Y018803D01*
X000696Y018785D01*
X000768Y018762D01*
X000842Y018750D01*
X001160Y018750D01*
X001160Y019210D01*
X001200Y019210D01*
X001200Y019250D01*
X001160Y019250D01*
X001160Y019710D01*
X000842Y019710D01*
X000768Y019698D01*
X000696Y019675D01*
X000660Y019657D01*
X000660Y022070D01*
X003224Y022070D01*
X003095Y021941D01*
X002990Y021687D01*
X002990Y020673D01*
X003095Y020419D01*
X003289Y020225D01*
X003543Y020120D01*
X003817Y020120D01*
X004071Y020225D01*
X004180Y020334D01*
X004289Y020225D01*
X004543Y020120D01*
X004817Y020120D01*
X005071Y020225D01*
X005180Y020334D01*
X005289Y020225D01*
X005543Y020120D01*
X005817Y020120D01*
X006071Y020225D01*
X006180Y020334D01*
X006289Y020225D01*
X006543Y020120D01*
X006817Y020120D01*
X007071Y020225D01*
X007265Y020419D01*
X007370Y020673D01*
X007370Y021687D01*
X007265Y021941D01*
X007136Y022070D01*
X013724Y022070D01*
X013595Y021941D01*
X013490Y021687D01*
X013490Y020673D01*
X013595Y020419D01*
X013789Y020225D01*
X014043Y020120D01*
X014317Y020120D01*
X014571Y020225D01*
X014680Y020334D01*
X014789Y020225D01*
X015043Y020120D01*
X015317Y020120D01*
X015571Y020225D01*
X015680Y020334D01*
X015789Y020225D01*
X016043Y020120D01*
X016317Y020120D01*
X016571Y020225D01*
X016680Y020334D01*
X016789Y020225D01*
X017043Y020120D01*
X017317Y020120D01*
X017571Y020225D01*
X017765Y020419D01*
X017870Y020673D01*
X017870Y021687D01*
X017765Y021941D01*
X017636Y022070D01*
X024224Y022070D01*
X024095Y021941D01*
X023990Y021687D01*
X023990Y020673D01*
X024095Y020419D01*
X024289Y020225D01*
X024543Y020120D01*
X024817Y020120D01*
X025071Y020225D01*
X025180Y020334D01*
X025289Y020225D01*
X025543Y020120D01*
X025817Y020120D01*
X026071Y020225D01*
X026180Y020334D01*
X026289Y020225D01*
X026543Y020120D01*
X026817Y020120D01*
X027071Y020225D01*
X027180Y020334D01*
X027289Y020225D01*
X027543Y020120D01*
X027817Y020120D01*
X028071Y020225D01*
X028265Y020419D01*
X028370Y020673D01*
X028370Y021687D01*
X028265Y021941D01*
X028136Y022070D01*
X031692Y022070D01*
X031692Y013680D01*
X028397Y013680D01*
X028489Y013718D01*
X028642Y013871D01*
X028582Y013811D02*
X031692Y013811D01*
X031692Y014287D02*
X029057Y014287D01*
X029216Y014445D02*
X031692Y014445D01*
X031692Y014604D02*
X029374Y014604D01*
X029533Y014762D02*
X031692Y014762D01*
X031692Y014921D02*
X029691Y014921D01*
X029850Y015079D02*
X031692Y015079D01*
X031692Y015238D02*
X030083Y015238D01*
X030242Y015396D02*
X031692Y015396D01*
X031692Y015555D02*
X030321Y015555D01*
X030370Y015713D02*
X031692Y015713D01*
X031692Y015872D02*
X030370Y015872D01*
X030370Y016030D02*
X031692Y016030D01*
X031692Y016189D02*
X030370Y016189D01*
X030370Y016347D02*
X031692Y016347D01*
X031692Y016506D02*
X030370Y016506D01*
X030370Y016664D02*
X031692Y016664D01*
X031692Y016823D02*
X030314Y016823D01*
X030225Y016981D02*
X031692Y016981D01*
X031692Y017140D02*
X030060Y017140D01*
X029300Y017140D02*
X029060Y017140D01*
X028833Y017298D02*
X031692Y017298D01*
X031692Y017457D02*
X028674Y017457D01*
X028516Y017615D02*
X031692Y017615D01*
X031692Y017774D02*
X028357Y017774D01*
X028199Y017932D02*
X031692Y017932D01*
X031692Y018091D02*
X028040Y018091D01*
X027882Y018249D02*
X031692Y018249D01*
X031692Y018408D02*
X027723Y018408D01*
X027565Y018566D02*
X031692Y018566D01*
X031692Y018725D02*
X027406Y018725D01*
X027248Y018883D02*
X031692Y018883D01*
X031692Y019042D02*
X027089Y019042D01*
X026849Y019200D02*
X031692Y019200D01*
X031692Y019359D02*
X001943Y019359D01*
X001948Y019342D02*
X001925Y019414D01*
X001891Y019482D01*
X001846Y019543D01*
X001793Y019596D01*
X001732Y019641D01*
X001664Y019675D01*
X001592Y019698D01*
X001518Y019710D01*
X001200Y019710D01*
X001200Y019250D01*
X001960Y019250D01*
X001960Y019268D01*
X001948Y019342D01*
X001960Y019210D02*
X001200Y019210D01*
X001200Y018750D01*
X001518Y018750D01*
X001592Y018762D01*
X001664Y018785D01*
X001732Y018819D01*
X001793Y018864D01*
X001846Y018917D01*
X001891Y018978D01*
X001925Y019046D01*
X001948Y019118D01*
X001960Y019192D01*
X001960Y019210D01*
X001960Y019200D02*
X011998Y019200D01*
X011764Y019042D02*
X001923Y019042D01*
X001812Y018883D02*
X011669Y018883D01*
X011630Y018725D02*
X001665Y018725D01*
X001921Y018566D02*
X011632Y018566D01*
X011698Y018408D02*
X002036Y018408D01*
X002100Y018249D02*
X011833Y018249D01*
X011800Y017140D02*
X009991Y017140D01*
X009833Y017298D02*
X027291Y017298D01*
X027300Y017140D02*
X027060Y017140D01*
X027133Y017457D02*
X009674Y017457D01*
X009516Y017615D02*
X026974Y017615D01*
X026816Y017774D02*
X009357Y017774D01*
X009199Y017932D02*
X026657Y017932D01*
X026499Y018091D02*
X009040Y018091D01*
X010150Y016981D02*
X011635Y016981D01*
X011546Y016823D02*
X010308Y016823D01*
X012560Y017140D02*
X013800Y017140D01*
X013635Y016981D02*
X013522Y016981D01*
X013210Y016981D02*
X013150Y016981D01*
X013150Y016823D02*
X013210Y016823D01*
X013210Y016664D02*
X013150Y016664D01*
X013150Y016506D02*
X013210Y016506D01*
X013210Y016347D02*
X013150Y016347D01*
X012838Y016981D02*
X012725Y016981D01*
X014560Y017140D02*
X014800Y017140D01*
X015560Y017140D02*
X015800Y017140D01*
X016560Y017140D02*
X016800Y017140D01*
X017560Y017140D02*
X017800Y017140D01*
X018560Y017140D02*
X018800Y017140D01*
X019560Y017140D02*
X022300Y017140D01*
X022135Y016981D02*
X019725Y016981D01*
X019814Y016823D02*
X022046Y016823D01*
X021990Y016664D02*
X019870Y016664D01*
X019870Y016506D02*
X021990Y016506D01*
X021990Y016347D02*
X019870Y016347D01*
X019942Y016189D02*
X021990Y016189D01*
X021990Y016030D02*
X020101Y016030D01*
X020259Y015872D02*
X021990Y015872D01*
X021990Y015713D02*
X020418Y015713D01*
X020576Y015555D02*
X022039Y015555D01*
X022118Y015396D02*
X020735Y015396D01*
X020893Y015238D02*
X022277Y015238D01*
X021369Y014762D02*
X027991Y014762D01*
X028150Y014921D02*
X021210Y014921D01*
X021052Y015079D02*
X028308Y015079D01*
X028277Y015238D02*
X028083Y015238D01*
X027277Y015238D02*
X027083Y015238D01*
X026277Y015238D02*
X026083Y015238D01*
X025277Y015238D02*
X025083Y015238D01*
X024277Y015238D02*
X023083Y015238D01*
X023242Y015396D02*
X023316Y015396D01*
X023650Y015396D02*
X023710Y015396D01*
X023710Y015555D02*
X023650Y015555D01*
X023650Y015713D02*
X023710Y015713D01*
X023710Y015872D02*
X023650Y015872D01*
X023650Y016030D02*
X023710Y016030D01*
X023710Y016347D02*
X023650Y016347D01*
X023650Y016506D02*
X023710Y016506D01*
X023710Y016664D02*
X023650Y016664D01*
X023650Y016823D02*
X023710Y016823D01*
X023710Y016981D02*
X023650Y016981D01*
X023338Y016981D02*
X023225Y016981D01*
X023060Y017140D02*
X024300Y017140D01*
X024135Y016981D02*
X024022Y016981D01*
X025060Y017140D02*
X025300Y017140D01*
X026060Y017140D02*
X026300Y017140D01*
X024118Y015396D02*
X024044Y015396D01*
X022450Y013180D02*
X022368Y013146D01*
X022214Y012992D01*
X022130Y012789D01*
X022130Y012571D01*
X022214Y012368D01*
X022368Y012214D01*
X022424Y012191D01*
X022289Y012135D01*
X022095Y011941D01*
X021990Y011687D01*
X021990Y010673D01*
X022013Y010618D01*
X019939Y012692D01*
X019992Y012714D01*
X020146Y012868D01*
X020230Y013071D01*
X020230Y013180D01*
X022450Y013180D01*
X022443Y013177D02*
X020230Y013177D01*
X020208Y013019D02*
X022241Y013019D01*
X022159Y012860D02*
X020138Y012860D01*
X019962Y012702D02*
X022130Y012702D01*
X022141Y012543D02*
X020088Y012543D01*
X020246Y012385D02*
X022207Y012385D01*
X022356Y012226D02*
X020405Y012226D01*
X020563Y012068D02*
X022222Y012068D01*
X022082Y011909D02*
X020722Y011909D01*
X020880Y011751D02*
X022016Y011751D01*
X021990Y011592D02*
X021039Y011592D01*
X021197Y011434D02*
X021990Y011434D01*
X021990Y011275D02*
X021356Y011275D01*
X021514Y011117D02*
X021990Y011117D01*
X021990Y010958D02*
X021673Y010958D01*
X021831Y010800D02*
X021990Y010800D01*
X021990Y010641D02*
X022003Y010641D01*
X025949Y006679D02*
X026135Y006679D01*
X026135Y006572D02*
X026135Y006857D01*
X025992Y006714D01*
X025979Y006709D01*
X023989Y004718D01*
X023788Y004635D01*
X022996Y004635D01*
X023406Y004225D01*
X027371Y004225D01*
X027322Y004260D01*
X027260Y004322D01*
X027210Y004392D01*
X027170Y004469D01*
X027144Y004551D01*
X027130Y004637D01*
X027130Y004660D01*
X027660Y004660D01*
X027660Y004700D01*
X027130Y004700D01*
X027130Y004723D01*
X027144Y004809D01*
X027170Y004891D01*
X027210Y004968D01*
X027260Y005038D01*
X027322Y005100D01*
X027392Y005150D01*
X027423Y005166D01*
X026371Y006218D01*
X026218Y006371D01*
X026135Y006572D01*
X026156Y006520D02*
X025791Y006520D01*
X025632Y006362D02*
X026228Y006362D01*
X026386Y006203D02*
X025474Y006203D01*
X025315Y006045D02*
X026545Y006045D01*
X026703Y005886D02*
X025157Y005886D01*
X024998Y005728D02*
X026862Y005728D01*
X027020Y005569D02*
X024840Y005569D01*
X024681Y005411D02*
X027179Y005411D01*
X027337Y005252D02*
X024523Y005252D01*
X024364Y005094D02*
X027316Y005094D01*
X027193Y004935D02*
X024206Y004935D01*
X024047Y004777D02*
X027138Y004777D01*
X027133Y004618D02*
X023013Y004618D01*
X023171Y004460D02*
X027175Y004460D01*
X027281Y004301D02*
X023330Y004301D01*
X023214Y003033D02*
X028262Y003033D01*
X028171Y002875D02*
X023149Y002875D01*
X022994Y002716D02*
X028135Y002716D01*
X028135Y002558D02*
X019328Y002558D01*
X019170Y002399D02*
X028135Y002399D01*
X028135Y002241D02*
X023095Y002241D01*
X023254Y002082D02*
X027304Y002082D01*
X027187Y001924D02*
X023326Y001924D01*
X023370Y001765D02*
X027137Y001765D01*
X027135Y001607D02*
X023370Y001607D01*
X023331Y001448D02*
X027181Y001448D01*
X027293Y001290D02*
X023265Y001290D01*
X023107Y001131D02*
X027630Y001131D01*
X027660Y001131D02*
X027700Y001131D01*
X027730Y001131D02*
X028253Y001131D01*
X028095Y001290D02*
X028067Y001290D01*
X027700Y001290D02*
X027660Y001290D01*
X027660Y001448D02*
X027700Y001448D01*
X027700Y001607D02*
X027660Y001607D01*
X027660Y001765D02*
X027700Y001765D01*
X027700Y001924D02*
X027660Y001924D01*
X027660Y002082D02*
X027700Y002082D01*
X028056Y002082D02*
X028106Y002082D01*
X029107Y001131D02*
X029253Y001131D01*
X031692Y000814D02*
X000660Y000814D01*
X000660Y002558D02*
X014032Y002558D01*
X013873Y002716D02*
X000660Y002716D01*
X000660Y002875D02*
X013715Y002875D01*
X013556Y003033D02*
X000660Y003033D01*
X000660Y003192D02*
X013398Y003192D01*
X013239Y003350D02*
X000660Y003350D01*
X000660Y003509D02*
X013081Y003509D01*
X012922Y003667D02*
X000660Y003667D01*
X000660Y003826D02*
X012764Y003826D01*
X012605Y003984D02*
X000660Y003984D01*
X009051Y007773D02*
X009146Y007868D01*
X009230Y008071D01*
X009230Y008289D01*
X009146Y008492D01*
X009003Y008635D01*
X010559Y008635D01*
X010571Y008630D01*
X010789Y008630D01*
X010992Y008714D01*
X011135Y008857D01*
X011135Y007701D01*
X011071Y007765D01*
X010817Y007870D01*
X010543Y007870D01*
X010289Y007765D01*
X010095Y007571D01*
X010087Y007551D01*
X010038Y007600D01*
X009968Y007650D01*
X009891Y007690D01*
X009809Y007716D01*
X009723Y007730D01*
X009700Y007730D01*
X009700Y007200D01*
X009660Y007200D01*
X009660Y007730D01*
X009637Y007730D01*
X009551Y007716D01*
X009469Y007690D01*
X009392Y007650D01*
X009322Y007600D01*
X009273Y007551D01*
X009265Y007571D01*
X009071Y007765D01*
X009051Y007773D01*
X009066Y007788D02*
X010345Y007788D01*
X010154Y007630D02*
X009997Y007630D01*
X009700Y007630D02*
X009660Y007630D01*
X009660Y007471D02*
X009700Y007471D01*
X009700Y007313D02*
X009660Y007313D01*
X009660Y007154D02*
X009700Y007154D01*
X009700Y006996D02*
X009660Y006996D01*
X009660Y006837D02*
X009700Y006837D01*
X009700Y006679D02*
X009660Y006679D01*
X009453Y006679D02*
X009154Y006679D01*
X009111Y006520D02*
X010470Y006520D01*
X010206Y006679D02*
X009907Y006679D01*
X009428Y006203D02*
X014630Y006203D01*
X014635Y006045D02*
X009586Y006045D01*
X009745Y005886D02*
X014635Y005886D01*
X014635Y005728D02*
X009903Y005728D01*
X010062Y005569D02*
X014635Y005569D01*
X014635Y005411D02*
X010220Y005411D01*
X009269Y006362D02*
X014660Y006362D01*
X014470Y006520D02*
X013890Y006520D01*
X014154Y006679D02*
X014206Y006679D01*
X013470Y006520D02*
X012890Y006520D01*
X013154Y006679D02*
X013206Y006679D01*
X012470Y006520D02*
X011890Y006520D01*
X012154Y006679D02*
X012206Y006679D01*
X011470Y006520D02*
X010890Y006520D01*
X011154Y006679D02*
X011206Y006679D01*
X011135Y007788D02*
X011015Y007788D01*
X011135Y007947D02*
X009179Y007947D01*
X009230Y008105D02*
X011135Y008105D01*
X011135Y008264D02*
X009230Y008264D01*
X009175Y008422D02*
X011135Y008422D01*
X011135Y008581D02*
X009057Y008581D01*
X009206Y007630D02*
X009363Y007630D01*
X011017Y008739D02*
X011135Y008739D01*
X002991Y014762D02*
X000660Y014762D01*
X000660Y014604D02*
X002833Y014604D01*
X002674Y014445D02*
X000660Y014445D01*
X000660Y014287D02*
X002516Y014287D01*
X002357Y014128D02*
X000660Y014128D01*
X000660Y013970D02*
X002210Y013970D01*
X002218Y013989D02*
X002135Y013788D01*
X002135Y013680D01*
X000660Y013680D01*
X000660Y016511D01*
X000718Y016371D01*
X000990Y016099D01*
X000990Y015673D01*
X001095Y015419D01*
X001289Y015225D01*
X001543Y015120D01*
X001817Y015120D01*
X002071Y015225D01*
X002265Y015419D01*
X002273Y015439D01*
X002322Y015390D01*
X002392Y015340D01*
X002469Y015300D01*
X002551Y015274D01*
X002637Y015260D01*
X002650Y015260D01*
X002650Y016150D01*
X002710Y016150D01*
X002710Y015260D01*
X002723Y015260D01*
X002809Y015274D01*
X002891Y015300D01*
X002968Y015340D01*
X003038Y015390D01*
X003087Y015439D01*
X003095Y015419D01*
X003289Y015225D01*
X003430Y015167D01*
X003371Y015142D01*
X003218Y014989D01*
X002218Y013989D01*
X002144Y013811D02*
X000660Y013811D01*
X000660Y014921D02*
X003150Y014921D01*
X003308Y015079D02*
X000660Y015079D01*
X000660Y015238D02*
X001277Y015238D01*
X001118Y015396D02*
X000660Y015396D01*
X000660Y015555D02*
X001039Y015555D01*
X000990Y015713D02*
X000660Y015713D01*
X000660Y015872D02*
X000990Y015872D01*
X000990Y016030D02*
X000660Y016030D01*
X000660Y016189D02*
X000901Y016189D01*
X000742Y016347D02*
X000660Y016347D01*
X000660Y016506D02*
X000662Y016506D01*
X002071Y017135D02*
X003289Y017135D01*
X003289Y017135D01*
X003095Y016941D01*
X003087Y016921D01*
X003038Y016970D01*
X002968Y017020D01*
X002891Y017060D01*
X002809Y017086D01*
X002723Y017100D01*
X002710Y017100D01*
X002710Y016210D01*
X002650Y016210D01*
X002650Y017100D01*
X002637Y017100D01*
X002551Y017086D01*
X002469Y017060D01*
X002392Y017020D01*
X002322Y016970D01*
X002273Y016921D01*
X002265Y016941D01*
X002071Y017135D01*
X002071Y017135D01*
X002225Y016981D02*
X002338Y016981D01*
X002650Y016981D02*
X002710Y016981D01*
X002710Y016823D02*
X002650Y016823D01*
X002650Y016664D02*
X002710Y016664D01*
X002710Y016506D02*
X002650Y016506D01*
X002650Y016347D02*
X002710Y016347D01*
X002710Y016030D02*
X002650Y016030D01*
X002650Y015872D02*
X002710Y015872D01*
X002710Y015713D02*
X002650Y015713D01*
X002650Y015555D02*
X002710Y015555D01*
X002710Y015396D02*
X002650Y015396D01*
X002316Y015396D02*
X002242Y015396D01*
X002083Y015238D02*
X003277Y015238D01*
X003118Y015396D02*
X003044Y015396D01*
X003022Y016981D02*
X003135Y016981D01*
X000695Y018725D02*
X000660Y018725D01*
X001160Y018883D02*
X001200Y018883D01*
X001200Y019042D02*
X001160Y019042D01*
X001160Y019200D02*
X001200Y019200D01*
X001200Y019359D02*
X001160Y019359D01*
X001160Y019517D02*
X001200Y019517D01*
X001200Y019676D02*
X001160Y019676D01*
X000698Y019676D02*
X000660Y019676D01*
X000660Y019834D02*
X031692Y019834D01*
X031692Y019676D02*
X001662Y019676D01*
X001865Y019517D02*
X031692Y019517D01*
X031692Y019993D02*
X000660Y019993D01*
X000660Y020151D02*
X003468Y020151D01*
X003205Y020310D02*
X000660Y020310D01*
X000660Y020468D02*
X003075Y020468D01*
X003009Y020627D02*
X000660Y020627D01*
X000660Y020785D02*
X002990Y020785D01*
X002990Y020944D02*
X000660Y020944D01*
X000660Y021102D02*
X002990Y021102D01*
X002990Y021261D02*
X000660Y021261D01*
X000660Y021419D02*
X002990Y021419D01*
X002990Y021578D02*
X000660Y021578D01*
X000660Y021736D02*
X003010Y021736D01*
X003076Y021895D02*
X000660Y021895D01*
X000660Y022053D02*
X003207Y022053D01*
X004155Y020310D02*
X004205Y020310D01*
X004468Y020151D02*
X003892Y020151D01*
X004892Y020151D02*
X005468Y020151D01*
X005205Y020310D02*
X005155Y020310D01*
X005892Y020151D02*
X006468Y020151D01*
X006205Y020310D02*
X006155Y020310D01*
X006892Y020151D02*
X013968Y020151D01*
X013705Y020310D02*
X007155Y020310D01*
X007285Y020468D02*
X013575Y020468D01*
X013509Y020627D02*
X007351Y020627D01*
X007370Y020785D02*
X013490Y020785D01*
X013490Y020944D02*
X007370Y020944D01*
X007370Y021102D02*
X013490Y021102D01*
X013490Y021261D02*
X007370Y021261D01*
X007370Y021419D02*
X013490Y021419D01*
X013490Y021578D02*
X007370Y021578D01*
X007350Y021736D02*
X013510Y021736D01*
X013576Y021895D02*
X007284Y021895D01*
X007153Y022053D02*
X013707Y022053D01*
X014655Y020310D02*
X014705Y020310D01*
X014968Y020151D02*
X014392Y020151D01*
X015392Y020151D02*
X015968Y020151D01*
X015705Y020310D02*
X015655Y020310D01*
X016392Y020151D02*
X016968Y020151D01*
X016705Y020310D02*
X016655Y020310D01*
X017392Y020151D02*
X024468Y020151D01*
X024205Y020310D02*
X017655Y020310D01*
X017785Y020468D02*
X024075Y020468D01*
X024009Y020627D02*
X017851Y020627D01*
X017870Y020785D02*
X023990Y020785D01*
X023990Y020944D02*
X017870Y020944D01*
X017870Y021102D02*
X023990Y021102D01*
X023990Y021261D02*
X017870Y021261D01*
X017870Y021419D02*
X023990Y021419D01*
X023990Y021578D02*
X017870Y021578D01*
X017850Y021736D02*
X024010Y021736D01*
X024076Y021895D02*
X017784Y021895D01*
X017653Y022053D02*
X024207Y022053D01*
X025155Y020310D02*
X025205Y020310D01*
X025468Y020151D02*
X024892Y020151D01*
X025892Y020151D02*
X026468Y020151D01*
X026205Y020310D02*
X026155Y020310D01*
X026892Y020151D02*
X027468Y020151D01*
X027205Y020310D02*
X027155Y020310D01*
X027892Y020151D02*
X031692Y020151D01*
X031692Y020310D02*
X028155Y020310D01*
X028285Y020468D02*
X031692Y020468D01*
X031692Y020627D02*
X028351Y020627D01*
X028370Y020785D02*
X031692Y020785D01*
X031692Y020944D02*
X028370Y020944D01*
X028370Y021102D02*
X031692Y021102D01*
X031692Y021261D02*
X028370Y021261D01*
X028370Y021419D02*
X031692Y021419D01*
X031692Y021578D02*
X028370Y021578D01*
X028350Y021736D02*
X031692Y021736D01*
X031692Y021895D02*
X028284Y021895D01*
X028153Y022053D02*
X031692Y022053D01*
X027700Y007160D02*
X027700Y006630D01*
X027723Y006630D01*
X027809Y006644D01*
X027891Y006670D01*
X027968Y006710D01*
X028038Y006760D01*
X028087Y006809D01*
X028095Y006789D01*
X028289Y006595D01*
X028543Y006490D01*
X028817Y006490D01*
X029071Y006595D01*
X029135Y006659D01*
X029135Y005201D01*
X029071Y005265D01*
X028817Y005370D01*
X028761Y005370D01*
X027452Y006679D01*
X027469Y006670D01*
X027551Y006644D01*
X027637Y006630D01*
X027660Y006630D01*
X027660Y007160D01*
X027700Y007160D01*
X027700Y007154D02*
X027660Y007154D01*
X027660Y006996D02*
X027700Y006996D01*
X027700Y006837D02*
X027660Y006837D01*
X027660Y006679D02*
X027700Y006679D01*
X027611Y006520D02*
X028470Y006520D01*
X028206Y006679D02*
X027907Y006679D01*
X027769Y006362D02*
X029135Y006362D01*
X029135Y006520D02*
X028890Y006520D01*
X029135Y006203D02*
X027928Y006203D01*
X028086Y006045D02*
X029135Y006045D01*
X029135Y005886D02*
X028245Y005886D01*
X028403Y005728D02*
X029135Y005728D01*
X029135Y005569D02*
X028562Y005569D01*
X028720Y005411D02*
X029135Y005411D01*
X029135Y005252D02*
X029084Y005252D01*
X027452Y006679D02*
X027453Y006679D01*
X026135Y006837D02*
X026115Y006837D01*
X022265Y002241D02*
X022095Y002241D01*
X021265Y002241D02*
X021095Y002241D01*
X020265Y002241D02*
X020095Y002241D01*
X019265Y002241D02*
X019095Y002241D01*
X019107Y001131D02*
X019253Y001131D01*
X020107Y001131D02*
X020253Y001131D01*
X021107Y001131D02*
X021253Y001131D01*
X022107Y001131D02*
X022253Y001131D01*
X018253Y001131D02*
X018107Y001131D01*
X017253Y001131D02*
X017107Y001131D01*
X016253Y001131D02*
X016107Y001131D01*
X015253Y001131D02*
X015107Y001131D01*
X014253Y001131D02*
X014107Y001131D01*
X013253Y001131D02*
X013107Y001131D01*
X012253Y001131D02*
X011730Y001131D01*
X011700Y001131D02*
X011660Y001131D01*
X011630Y001131D02*
X011107Y001131D01*
X011265Y001290D02*
X011293Y001290D01*
X011660Y001290D02*
X011700Y001290D01*
X011700Y001448D02*
X011660Y001448D01*
X011660Y001607D02*
X011700Y001607D01*
X011700Y001765D02*
X011660Y001765D01*
X011660Y001924D02*
X011700Y001924D01*
X011700Y002082D02*
X011660Y002082D01*
X012056Y002082D02*
X012106Y002082D01*
X012265Y002241D02*
X011095Y002241D01*
X011254Y002082D02*
X011304Y002082D01*
X010265Y002241D02*
X010095Y002241D01*
X009265Y002241D02*
X009095Y002241D01*
X009107Y001131D02*
X009253Y001131D01*
X010107Y001131D02*
X010253Y001131D01*
X012067Y001290D02*
X012095Y001290D01*
X013095Y002241D02*
X013265Y002241D01*
X014095Y002241D02*
X014265Y002241D01*
X002135Y012226D02*
X001851Y012226D01*
M02*
